<?xml version="1.0" encoding="utf-8"?>
<svg xmlns="http://www.w3.org/2000/svg" viewBox="0 0 512 378.9" style="shape-rendering: geometricprecision;">
  <path class="fil1" d="M 163.873 289.12 C 207.831 246.989 251.737 204.798 295.664 162.617 C 295.695 162.586 295.735 162.556 295.766 162.515 C 319.657 138.593 351.496 125.449 385.304 125.449 C 419.122 125.449 450.941 138.674 474.843 162.586 C 498.785 186.529 512 218.307 512 252.176 C 512 285.994 498.775 317.812 474.863 341.724 C 450.941 365.647 419.142 378.851 385.304 378.851 C 351.892 378.851 319.952 365.961 296.324 342.313 C 296.283 342.283 296.253 342.242 296.212 342.212 L 268.078 315.224 C 266.403 313.621 265.551 311.621 265.551 309.307 C 265.551 306.993 266.403 304.993 268.068 303.39 L 309.823 263.289 C 312.989 260.244 318.003 260.244 321.18 263.289 L 348.127 289.12 C 348.167 289.14 348.198 289.16 348.218 289.191 C 368.02 309.023 402.548 309.013 422.37 289.191 C 432.266 279.295 437.736 266.141 437.736 252.145 C 437.736 238.078 432.235 224.995 422.299 215.049 C 412.424 205.143 399.27 199.683 385.294 199.683 C 370.933 199.683 357.88 205.407 347.711 215.526 C 347.68 215.556 347.64 215.587 347.609 215.617 C 303.692 257.839 259.755 300.041 215.788 342.212 C 215.747 342.242 215.717 342.283 215.676 342.313 C 192.048 365.961 160.108 378.851 126.696 378.851 C 119.825 378.851 112.953 378.313 106.163 377.207 C 79.886 372.954 55.964 360.552 37.137 341.724 C 13.225 317.812 0 285.994 0 252.176 C 0 218.307 13.215 186.529 37.157 162.586 C 55.984 143.759 79.927 131.356 106.204 127.094 C 112.984 125.997 119.835 125.449 126.696 125.449 C 144.62 125.449 162.31 129.164 178.661 136.512 C 181.665 137.872 183.502 140.704 183.502 143.992 L 183.502 214.734 C 183.502 218.084 181.594 220.966 178.509 222.275 C 175.434 223.585 172.023 222.965 169.618 220.641 L 164.391 215.617 C 164.36 215.587 164.32 215.556 164.289 215.526 C 154.12 205.407 141.067 199.683 126.706 199.683 C 112.73 199.683 99.576 205.143 89.701 215.049 C 79.765 224.995 74.264 238.078 74.264 252.145 C 74.264 266.141 79.734 279.295 89.63 289.191 C 109.452 309.013 143.98 309.023 163.782 289.191 C 163.802 289.16 163.833 289.14 163.873 289.12 Z M 189.044 43.97 C 189.044 41.057 190.445 38.54 192.921 36.997 C 207.404 28.015 222.791 20.524 238.797 14.668 C 241.385 13.714 244.054 14.069 246.317 15.642 C 248.571 17.226 249.819 19.611 249.819 22.361 L 249.819 191.746 C 249.819 194.06 248.966 196.059 247.302 197.663 L 202.198 241.042 C 199.021 244.097 194.007 244.097 190.83 241.042 L 189.237 239.509 C 189.115 239.387 189.044 239.235 189.044 239.052 C 189.044 174.025 189.044 108.997 189.044 43.97 Z M 255.361 15.5 C 255.361 11.725 257.837 8.528 261.491 7.563 C 276.512 3.646 291.868 1.129 307.346 0.022 C 309.701 -0.14 311.802 0.601 313.517 2.204 C 315.242 3.808 316.136 5.848 316.136 8.203 L 316.136 131.732 C 316.136 134.594 314.786 137.071 312.38 138.623 C 304.311 143.83 296.831 149.889 290.041 156.679 C 290.001 156.72 289.96 156.761 289.919 156.801 L 256.457 188.924 C 256.203 189.168 255.807 189.158 255.564 188.914 L 255.553 188.904 C 255.421 188.782 255.361 188.63 255.361 188.447 L 255.361 15.5 Z" style="stroke-width: 1;"/>
</svg>