<?xml version="1.0" encoding="utf-8"?>
<svg xmlns="http://www.w3.org/2000/svg" viewBox="0 0 512 512" style="shape-rendering: geometricprecision;">
  <path class="fil1" d="M 163.873 355.694 C 207.831 313.563 251.737 271.372 295.664 229.191 C 295.695 229.16 295.735 229.13 295.766 229.089 C 319.657 205.167 351.496 192.023 385.304 192.023 C 419.122 192.023 450.941 205.248 474.843 229.16 C 498.785 253.103 512 284.881 512 318.75 C 512 352.568 498.775 384.386 474.863 408.298 C 450.941 432.221 419.142 445.425 385.304 445.425 C 351.892 445.425 319.952 432.535 296.324 408.887 C 296.283 408.857 296.253 408.816 296.212 408.786 L 268.078 381.798 C 266.403 380.195 265.551 378.195 265.551 375.881 C 265.551 373.567 266.403 371.567 268.068 369.964 L 309.823 329.863 C 312.989 326.818 318.003 326.818 321.18 329.863 L 348.127 355.694 C 348.167 355.714 348.198 355.734 348.218 355.765 C 368.02 375.597 402.548 375.587 422.37 355.765 C 432.266 345.869 437.736 332.715 437.736 318.719 C 437.736 304.652 432.235 291.569 422.299 281.623 C 412.424 271.717 399.27 266.257 385.294 266.257 C 370.933 266.257 357.88 271.981 347.711 282.1 C 347.68 282.13 347.64 282.161 347.609 282.191 C 303.692 324.413 259.755 366.615 215.788 408.786 C 215.747 408.816 215.717 408.857 215.676 408.887 C 192.048 432.535 160.108 445.425 126.696 445.425 C 119.825 445.425 112.953 444.887 106.163 443.781 C 79.886 439.528 55.964 427.126 37.137 408.298 C 13.225 384.386 0 352.568 0 318.75 C 0 284.881 13.215 253.103 37.157 229.16 C 55.984 210.333 79.927 197.93 106.204 193.668 C 112.984 192.571 119.835 192.023 126.696 192.023 C 144.62 192.023 162.31 195.738 178.661 203.086 C 181.665 204.446 183.502 207.278 183.502 210.566 L 183.502 281.308 C 183.502 284.658 181.594 287.54 178.509 288.849 C 175.434 290.159 172.023 289.539 169.618 287.215 L 164.391 282.191 C 164.36 282.161 164.32 282.13 164.289 282.1 C 154.12 271.981 141.067 266.257 126.706 266.257 C 112.73 266.257 99.576 271.717 89.701 281.623 C 79.765 291.569 74.264 304.652 74.264 318.719 C 74.264 332.715 79.734 345.869 89.63 355.765 C 109.452 375.587 143.98 375.597 163.782 355.765 C 163.802 355.734 163.833 355.714 163.873 355.694 Z M 189.044 110.544 C 189.044 107.631 190.445 105.114 192.921 103.571 C 207.404 94.589 222.791 87.098 238.797 81.242 C 241.385 80.288 244.054 80.643 246.317 82.216 C 248.571 83.8 249.819 86.185 249.819 88.935 L 249.819 258.32 C 249.819 260.634 248.966 262.633 247.302 264.237 L 202.198 307.616 C 199.021 310.671 194.007 310.671 190.83 307.616 L 189.237 306.083 C 189.115 305.961 189.044 305.809 189.044 305.626 C 189.044 240.599 189.044 175.571 189.044 110.544 Z M 255.361 82.074 C 255.361 78.299 257.837 75.102 261.491 74.137 C 276.512 70.22 291.868 67.703 307.346 66.596 C 309.701 66.434 311.802 67.175 313.517 68.778 C 315.242 70.382 316.136 72.422 316.136 74.777 L 316.136 198.306 C 316.136 201.168 314.786 203.645 312.38 205.197 C 304.311 210.404 296.831 216.463 290.041 223.253 C 290.001 223.294 289.96 223.335 289.919 223.375 L 256.457 255.498 C 256.203 255.742 255.807 255.732 255.564 255.488 L 255.553 255.478 C 255.421 255.356 255.361 255.204 255.361 255.021 L 255.361 82.074 Z" style="stroke-width: 1;"/>
</svg>