<?xml version="1.0" encoding="utf-8"?>
<svg xmlns="http://www.w3.org/2000/svg" viewBox="0 0 1500 300" style="shape-rendering: geometricprecision;">
  <path class="fil0" d="M 500.002 213.367 L 500.002 101.065 L 566.79 101.065 C 577.8 101.065 586.817 102.492 593.885 105.369 C 600.931 108.246 606.504 112.234 610.582 117.377 C 614.638 122.519 617.492 128.5 619.123 135.297 C 620.754 142.093 621.57 149.434 621.57 157.295 C 621.57 170.503 619.576 181.196 615.566 189.42 C 611.556 197.621 605.507 203.67 597.442 207.567 C 589.354 211.441 579.137 213.367 566.79 213.367 L 500.002 213.367 Z M 539.513 187.064 L 562.712 187.064 C 567.741 187.064 571.638 186.067 574.425 184.051 C 577.211 182.034 579.182 178.84 580.338 174.445 C 581.493 170.072 582.059 164.341 582.059 157.295 C 582.059 150.634 581.629 145.333 580.745 141.346 C 579.862 137.358 578.57 134.368 576.871 132.352 C 575.172 130.335 573.133 128.999 570.777 128.342 C 568.398 127.685 565.702 127.367 562.712 127.367 L 539.513 127.367 L 539.513 187.064 Z M 700.976 214.273 C 690.261 214.273 680.859 213.502 672.771 211.939 C 664.705 210.376 657.954 207.589 652.517 203.557 C 647.08 199.524 643.024 193.747 640.306 186.248 C 637.587 178.727 636.228 169.03 636.228 157.136 C 636.228 145.242 637.587 135.546 640.306 128.047 C 643.024 120.526 647.08 114.771 652.517 110.739 C 657.954 106.706 664.705 103.897 672.771 102.333 C 680.859 100.77 690.261 100 700.976 100 C 711.715 100 721.117 100.77 729.182 102.333 C 737.27 103.897 744.021 106.706 749.436 110.739 C 754.873 114.771 758.951 120.526 761.67 128.047 C 764.388 135.546 765.725 145.242 765.725 157.136 C 765.725 169.03 764.388 178.727 761.67 186.248 C 758.951 193.747 754.873 199.524 749.436 203.557 C 744.021 207.589 737.27 210.376 729.182 211.939 C 721.117 213.502 711.715 214.273 700.976 214.273 Z M 700.976 187.97 C 706.142 187.97 710.356 187.517 713.618 186.611 C 716.858 185.705 719.418 184.141 721.253 181.921 C 723.065 179.724 724.357 176.597 725.104 172.565 C 725.852 168.532 726.237 163.389 726.237 157.136 C 726.237 150.589 725.852 145.31 725.104 141.278 C 724.357 137.245 723.065 134.141 721.253 131.966 C 719.418 129.814 716.858 128.319 713.618 127.503 C 710.356 126.71 706.142 126.303 700.976 126.303 C 695.97 126.303 691.778 126.71 688.471 127.503 C 685.14 128.319 682.558 129.814 680.723 131.966 C 678.888 134.141 677.596 137.245 676.849 141.278 C 676.101 145.31 675.739 150.589 675.739 157.136 C 675.739 163.389 676.101 168.532 676.849 172.565 C 677.596 176.597 678.888 179.724 680.723 181.921 C 682.558 184.141 685.14 185.705 688.471 186.611 C 691.778 187.517 695.97 187.97 700.976 187.97 Z M 835.979 214.273 C 827.438 214.273 819.758 213.525 812.984 212.007 C 806.187 210.512 800.342 207.725 795.471 203.693 C 790.578 199.66 786.84 193.883 784.257 186.316 C 781.674 178.749 780.406 168.94 780.406 156.842 C 780.406 145.152 781.742 135.569 784.461 128.115 C 787.179 120.662 791.008 114.884 795.97 110.807 C 800.931 106.729 806.799 103.897 813.595 102.333 C 820.369 100.77 827.845 100 835.979 100 C 844.406 100 851.837 100.317 858.271 100.974 C 864.728 101.631 870.233 102.424 874.764 103.33 C 879.318 104.237 882.943 105.143 885.662 106.049 L 885.662 128.863 C 883.101 128.478 879.771 128.07 875.693 127.662 C 871.615 127.254 866.971 126.937 861.738 126.688 C 856.527 126.439 850.841 126.303 844.746 126.303 C 840.125 126.303 836.228 126.665 833.034 127.367 C 829.839 128.07 827.302 129.474 825.399 131.604 C 823.496 133.711 822.114 136.815 821.23 140.893 C 820.347 144.971 819.894 150.385 819.894 157.136 C 819.894 163.185 820.233 168.237 820.913 172.27 C 821.593 176.28 822.816 179.429 824.583 181.717 C 826.35 183.983 828.888 185.591 832.218 186.543 C 835.548 187.494 839.853 187.97 845.154 187.97 C 855.462 187.97 863.845 187.857 870.301 187.608 C 876.735 187.358 881.878 187.019 885.662 186.611 L 885.662 209.447 C 882.263 210.444 878.299 211.305 873.768 212.007 C 869.214 212.732 863.89 213.276 857.773 213.684 C 851.656 214.092 844.406 214.273 835.979 214.273 Z M 963.052 214.273 C 952.313 214.273 942.911 213.502 934.846 211.939 C 926.758 210.376 920.007 207.589 914.592 203.557 C 909.155 199.524 905.077 193.747 902.358 186.248 C 899.64 178.727 898.28 169.03 898.28 157.136 C 898.28 145.242 899.64 135.546 902.358 128.047 C 905.077 120.526 909.155 114.771 914.592 110.739 C 920.007 106.706 926.758 103.897 934.846 102.333 C 942.911 100.77 952.313 100 963.052 100 C 973.768 100 983.169 100.77 991.257 102.333 C 999.323 103.897 1006.07 106.706 1011.51 110.739 C 1016.95 114.771 1021 120.526 1023.72 128.047 C 1026.44 135.546 1027.8 145.242 1027.8 157.136 C 1027.8 169.03 1026.44 178.727 1023.72 186.248 C 1021 193.747 1016.95 199.524 1011.51 203.557 C 1006.07 207.589 999.323 210.376 991.257 211.939 C 983.169 213.502 973.768 214.273 963.052 214.273 Z M 963.052 187.97 C 968.194 187.97 972.408 187.517 975.671 186.611 C 978.933 185.705 981.47 184.141 983.305 181.921 C 985.14 179.724 986.432 176.597 987.179 172.565 C 987.927 168.532 988.29 163.389 988.29 157.136 C 988.29 150.589 987.927 145.31 987.179 141.278 C 986.432 137.245 985.14 134.141 983.305 131.966 C 981.47 129.814 978.933 128.319 975.671 127.503 C 972.408 126.71 968.194 126.303 963.052 126.303 C 958.022 126.303 953.854 126.71 950.523 127.503 C 947.193 128.319 944.61 129.814 942.775 131.966 C 940.963 134.141 939.672 137.245 938.924 141.278 C 938.176 145.31 937.791 150.589 937.791 157.136 C 937.791 163.389 938.176 168.532 938.924 172.565 C 939.672 176.597 940.963 179.724 942.775 181.921 C 944.61 184.141 947.193 185.705 950.523 186.611 C 953.854 187.517 958.022 187.97 963.052 187.97 Z M 1051.61 213.367 L 1051.61 102.424 L 1104.35 102.424 C 1116.45 102.424 1125.67 104.712 1132.06 109.289 C 1138.42 113.888 1141.62 121.001 1141.62 130.698 C 1141.62 135.319 1140.65 139.375 1138.67 142.864 C 1136.7 146.33 1134.1 149.162 1130.84 151.314 C 1127.57 153.489 1124.11 154.984 1120.44 155.777 C 1123.02 156.185 1125.81 156.955 1128.8 158.133 C 1131.79 159.289 1134.66 160.897 1137.45 162.959 C 1140.24 165.02 1142.5 167.671 1144.27 170.888 C 1146.04 174.128 1146.92 178.002 1146.92 182.533 C 1146.92 190.507 1145.24 196.715 1141.94 201.201 C 1138.61 205.686 1133.85 208.836 1127.66 210.648 C 1121.5 212.46 1114.28 213.367 1105.98 213.367 L 1051.61 213.367 Z M 1063.44 205.528 L 1105.78 205.528 C 1111.76 205.528 1116.95 204.826 1121.37 203.466 C 1125.78 202.107 1129.23 199.705 1131.74 196.217 C 1134.26 192.75 1135.5 187.721 1135.5 181.174 C 1135.5 176.643 1134.19 172.768 1131.54 169.529 C 1128.89 166.312 1125.33 163.865 1120.85 162.211 C 1116.38 160.535 1111.35 159.719 1105.78 159.719 L 1063.44 159.719 L 1063.44 205.528 Z M 1063.44 152.605 L 1105.37 152.605 C 1112.44 152.605 1118.31 150.725 1123 146.942 C 1127.66 143.158 1130.09 138.083 1130.22 131.74 C 1130.63 123.788 1128.34 118.215 1123.4 115.043 C 1118.44 111.871 1112.03 110.285 1104.15 110.285 L 1063.44 110.285 L 1063.44 152.605 Z M 1213.1 213.367 L 1213.1 175.578 L 1164.84 102.424 L 1177.26 102.424 L 1219.21 166.81 L 1261.15 102.424 L 1273.36 102.424 L 1224.9 175.578 L 1224.9 213.367 L 1213.1 213.367 Z M 1332.83 213.367 L 1332.83 110.285 L 1284.98 110.285 L 1284.98 102.424 L 1392.48 102.424 L 1392.48 110.285 L 1344.63 110.285 L 1344.63 213.367 L 1332.83 213.367 Z M 1440.53 213.978 C 1437.15 213.978 1433.71 213.752 1430.24 213.299 C 1426.8 212.845 1423.54 211.939 1420.48 210.58 C 1417.42 209.221 1414.95 207.159 1413.05 204.372 C 1411.15 201.609 1410.19 197.916 1410.19 193.271 L 1410.19 123.743 C 1410.19 119.597 1411.01 116.176 1412.64 113.457 C 1414.27 110.739 1416.45 108.564 1419.17 106.955 C 1421.86 105.347 1424.9 104.191 1428.23 103.466 C 1431.54 102.764 1434.91 102.424 1438.31 102.424 C 1446.04 102.515 1453.4 102.628 1460.4 102.719 C 1467.38 102.832 1474.17 102.945 1480.74 103.104 C 1487.34 103.24 1493.75 103.421 1500 103.625 L 1500 110.421 L 1440.73 110.421 C 1435.05 110.421 1430.49 111.554 1427.1 113.82 C 1423.7 116.108 1422 119.755 1422 124.785 L 1422 154.259 L 1491.44 155.029 L 1491.44 161.531 L 1422 162.279 L 1422 191.618 C 1422 195.741 1422.99 198.822 1424.97 200.838 C 1426.94 202.855 1429.47 204.169 1432.6 204.826 C 1435.73 205.483 1438.9 205.822 1442.16 205.822 L 1500 205.822 L 1500 212.619 C 1493.75 212.823 1487.27 213.004 1480.54 213.14 C 1473.83 213.299 1467.15 213.457 1460.49 213.593 C 1453.85 213.752 1447.19 213.888 1440.53 213.978 Z" style="fill-rule: nonzero; stroke-width: 2.266;"/>
  <path class="fil0" d="M 521.433 286.724 C 517.287 286.724 513.595 285.863 510.378 284.187 C 507.138 282.488 504.601 280.154 502.765 277.141 C 500.93 274.15 500.002 270.73 500.002 266.923 C 500.002 263.072 500.93 259.651 502.765 256.683 C 504.601 253.693 507.138 251.359 510.378 249.683 C 513.595 247.984 517.287 247.145 521.433 247.145 C 525.489 247.145 529 247.984 532.013 249.683 C 535.004 251.359 537.224 253.783 538.651 256.932 L 530.02 261.577 C 529 259.764 527.754 258.428 526.259 257.567 C 524.764 256.706 523.132 256.298 521.365 256.298 C 519.462 256.298 517.741 256.706 516.223 257.567 C 514.705 258.428 513.504 259.651 512.62 261.214 C 511.737 262.778 511.284 264.703 511.284 266.923 C 511.284 269.166 511.737 271.069 512.62 272.655 C 513.504 274.218 514.705 275.442 516.223 276.28 C 517.741 277.141 519.462 277.571 521.365 277.571 C 523.132 277.571 524.764 277.164 526.259 276.325 C 527.754 275.487 529 274.15 530.02 272.293 L 538.651 277.005 C 537.224 280.086 535.004 282.488 532.013 284.187 C 529 285.863 525.489 286.724 521.433 286.724 Z M 572.158 286.724 C 568.012 286.679 564.388 285.795 561.238 284.119 C 558.089 282.42 555.62 280.086 553.808 277.141 C 551.995 274.196 551.089 270.797 551.089 266.923 C 551.044 263.072 551.95 259.651 553.808 256.683 C 555.665 253.693 558.157 251.359 561.306 249.683 C 564.456 247.984 568.035 247.168 572.09 247.213 C 576.191 247.168 579.838 247.984 583.01 249.683 C 586.205 251.359 588.697 253.693 590.486 256.683 C 592.276 259.651 593.16 263.072 593.16 266.923 C 593.205 270.73 592.321 274.128 590.532 277.118 C 588.719 280.086 586.205 282.42 583.01 284.119 C 579.838 285.795 576.214 286.679 572.158 286.724 Z M 572.158 277.571 C 574.016 277.571 575.693 277.141 577.165 276.28 C 578.638 275.442 579.793 274.196 580.654 272.61 C 581.515 271.024 581.945 269.121 581.945 266.923 C 581.945 264.703 581.515 262.778 580.654 261.214 C 579.793 259.651 578.638 258.428 577.165 257.567 C 575.693 256.706 573.993 256.298 572.09 256.298 C 570.278 256.298 568.647 256.706 567.174 257.567 C 565.679 258.428 564.501 259.651 563.617 261.214 C 562.756 262.778 562.303 264.703 562.303 266.923 C 562.303 269.121 562.756 271.024 563.617 272.61 C 564.501 274.196 565.679 275.442 567.129 276.325 C 568.579 277.209 570.255 277.617 572.158 277.571 Z M 609.947 286.135 L 609.947 247.712 L 620.595 247.712 L 620.595 258.224 L 618.601 255.143 C 619.938 252.515 621.818 250.544 624.288 249.184 C 626.735 247.825 629.521 247.145 632.67 247.145 C 636.205 247.145 639.286 248.029 641.914 249.819 C 644.564 251.609 646.309 254.327 647.17 257.997 L 643.25 256.932 C 644.519 253.919 646.581 251.541 649.412 249.796 C 652.244 248.029 655.507 247.145 659.177 247.145 C 662.213 247.145 664.931 247.757 667.287 248.958 C 669.644 250.181 671.501 252.039 672.861 254.531 C 674.197 257.046 674.877 260.24 674.877 264.137 L 674.877 286.135 L 663.731 286.135 L 663.731 265.859 C 663.731 262.755 663.096 260.489 661.805 258.994 C 660.536 257.522 658.724 256.797 656.39 256.797 C 654.759 256.797 653.309 257.159 652.04 257.884 C 650.749 258.632 649.752 259.742 649.027 261.214 C 648.302 262.687 647.963 264.567 647.963 266.855 L 647.963 286.135 L 636.816 286.135 L 636.816 265.859 C 636.816 262.755 636.182 260.489 634.913 258.994 C 633.667 257.522 631.855 256.797 629.521 256.797 C 627.913 256.797 626.463 257.159 625.171 257.884 C 623.88 258.632 622.883 259.742 622.181 261.214 C 621.456 262.687 621.094 264.567 621.094 266.855 L 621.094 286.135 L 609.947 286.135 Z M 716.902 286.724 C 713.663 286.724 710.831 285.999 708.407 284.572 C 705.96 283.145 704.079 280.97 702.72 278.047 C 701.361 275.102 700.681 271.409 700.681 266.923 C 700.681 262.415 701.316 258.7 702.607 255.777 C 703.898 252.877 705.756 250.725 708.18 249.298 C 710.604 247.848 713.504 247.145 716.902 247.145 C 720.504 247.145 723.767 247.961 726.644 249.615 C 729.521 251.246 731.809 253.557 733.509 256.502 C 735.185 259.447 736.046 262.936 736.046 266.923 C 736.046 270.979 735.185 274.468 733.509 277.435 C 731.809 280.381 729.521 282.669 726.644 284.277 C 723.767 285.908 720.504 286.724 716.902 286.724 Z M 694.179 300 L 694.179 247.712 L 704.827 247.712 L 704.827 255.573 L 704.601 266.991 L 705.325 278.364 L 705.325 300 L 694.179 300 Z M 714.977 277.571 C 716.834 277.571 718.488 277.141 719.938 276.28 C 721.388 275.442 722.543 274.196 723.427 272.61 C 724.311 271.024 724.764 269.121 724.764 266.923 C 724.764 264.703 724.311 262.778 723.427 261.214 C 722.543 259.651 721.388 258.428 719.938 257.567 C 718.488 256.706 716.834 256.298 714.977 256.298 C 713.119 256.298 711.442 256.706 709.97 257.567 C 708.497 258.428 707.319 259.651 706.458 261.214 C 705.62 262.778 705.19 264.703 705.19 266.923 C 705.19 269.121 705.62 271.024 706.458 272.61 C 707.319 274.196 708.497 275.442 709.97 276.28 C 711.442 277.141 713.119 277.571 714.977 277.571 Z M 752.901 286.135 L 752.765 247.712 L 763.821 247.78 L 763.912 286.135 L 752.901 286.135 Z M 758.339 242.365 C 756.277 242.365 754.623 241.754 753.332 240.575 C 752.04 239.375 751.406 237.902 751.406 236.135 C 751.406 234.391 752.04 232.895 753.332 231.717 C 754.623 230.517 756.277 229.928 758.339 229.928 C 760.378 229.928 762.054 230.494 763.323 231.604 C 764.614 232.737 765.271 234.164 765.271 235.931 C 765.271 237.789 764.637 239.329 763.368 240.53 C 762.099 241.754 760.423 242.365 758.339 242.365 Z M 783.622 286.135 L 783.554 233.145 L 794.632 233.145 L 794.7 286.135 L 783.622 286.135 Z M 833.418 286.724 C 829.045 286.724 825.194 285.863 821.886 284.141 C 818.579 282.42 816.019 280.086 814.206 277.118 C 812.394 274.128 811.488 270.73 811.488 266.923 C 811.488 263.072 812.394 259.651 814.161 256.683 C 815.951 253.693 818.398 251.359 821.501 249.683 C 824.582 247.984 828.094 247.145 831.991 247.145 C 835.751 247.145 839.15 247.938 842.163 249.547 C 845.199 251.133 847.6 253.421 849.345 256.389 C 851.112 259.379 851.995 262.936 851.995 267.082 C 851.995 267.512 851.973 267.988 851.927 268.532 C 851.882 269.076 851.837 269.597 851.769 270.073 L 820.572 270.073 L 820.572 263.57 L 845.924 263.57 L 841.642 265.496 C 841.642 263.502 841.234 261.758 840.418 260.285 C 839.603 258.813 838.493 257.657 837.065 256.819 C 835.638 255.981 833.962 255.573 832.059 255.573 C 830.156 255.573 828.479 255.981 827.029 256.819 C 825.579 257.657 824.446 258.813 823.631 260.331 C 822.838 261.826 822.43 263.593 822.43 265.655 L 822.43 267.354 C 822.43 269.461 822.883 271.296 823.812 272.904 C 824.741 274.49 826.055 275.714 827.731 276.529 C 829.431 277.367 831.424 277.798 833.712 277.798 C 835.751 277.798 837.541 277.481 839.104 276.869 C 840.645 276.235 842.072 275.306 843.341 274.082 L 849.277 280.494 C 847.509 282.51 845.312 284.028 842.639 285.116 C 839.965 286.18 836.907 286.724 833.418 286.724 Z M 904.646 286.724 C 900.115 286.724 896.603 285.569 894.066 283.258 C 891.551 280.947 890.282 277.503 890.282 272.927 L 890.282 239.216 L 901.429 239.216 L 901.429 272.791 C 901.429 274.4 901.859 275.646 902.72 276.529 C 903.581 277.413 904.736 277.866 906.209 277.866 C 907.976 277.866 909.471 277.39 910.717 276.439 L 913.708 284.277 C 912.575 285.093 911.193 285.705 909.607 286.112 C 908.021 286.52 906.368 286.724 904.646 286.724 Z M 884.369 256.298 L 884.369 247.712 L 911.012 247.712 L 911.012 256.298 L 884.369 256.298 Z M 929.298 286.135 L 929.298 233.145 L 940.438 233.145 L 940.438 258.36 L 937.948 255.143 C 939.328 252.583 941.298 250.589 943.858 249.207 C 946.448 247.825 949.368 247.145 952.648 247.145 C 955.708 247.145 958.428 247.757 960.828 248.958 C 963.228 250.181 965.138 252.039 966.518 254.531 C 967.898 257.046 968.578 260.24 968.578 264.137 L 968.578 286.135 L 957.428 286.135 L 957.428 265.859 C 957.428 262.755 956.758 260.489 955.388 258.994 C 954.058 257.522 952.128 256.797 949.658 256.797 C 947.898 256.797 946.308 257.159 944.908 257.884 C 943.498 258.632 942.408 259.764 941.618 261.282 C 940.828 262.8 940.438 264.771 940.438 267.15 L 940.438 286.135 L 929.298 286.135 Z M 1007.3 286.724 C 1002.93 286.724 999.078 285.863 995.768 284.141 C 992.458 282.42 989.898 280.086 988.088 277.118 C 986.268 274.128 985.368 270.73 985.368 266.923 C 985.368 263.072 986.268 259.651 988.058 256.683 C 989.848 253.693 992.278 251.359 995.378 249.683 C 998.488 247.984 1001.98 247.145 1005.87 247.145 C 1009.63 247.145 1013.03 247.938 1016.07 249.547 C 1019.08 251.133 1021.48 253.421 1023.25 256.389 C 1024.99 259.379 1025.88 262.936 1025.88 267.082 C 1025.88 267.512 1025.85 267.988 1025.81 268.532 C 1025.76 269.076 1025.72 269.597 1025.67 270.073 L 994.448 270.073 L 994.448 263.57 L 1019.8 263.57 L 1015.52 265.496 C 1015.52 263.502 1015.11 261.758 1014.3 260.285 C 1013.51 258.813 1012.37 257.657 1010.95 256.819 C 1009.52 255.981 1007.86 255.573 1005.96 255.573 C 1004.04 255.573 1002.36 255.981 1000.91 256.819 C 999.458 257.657 998.328 258.813 997.508 260.331 C 996.718 261.826 996.308 263.593 996.308 265.655 L 996.308 267.354 C 996.308 269.461 996.758 271.296 997.688 272.904 C 998.618 274.49 999.938 275.714 1001.63 276.529 C 1003.31 277.367 1005.31 277.798 1007.59 277.798 C 1009.63 277.798 1011.44 277.481 1012.99 276.869 C 1014.53 276.235 1015.95 275.306 1017.24 274.082 L 1023.16 280.494 C 1021.41 282.51 1019.19 284.028 1016.52 285.116 C 1013.85 286.18 1010.79 286.724 1007.3 286.724 Z M 1064.19 286.135 L 1064.19 246.851 C 1064.19 242.524 1065.45 239.058 1068.04 236.475 C 1070.6 233.87 1074.27 232.578 1079.03 232.578 C 1080.66 232.578 1082.22 232.737 1083.71 233.077 C 1085.21 233.416 1086.48 233.937 1087.52 234.64 L 1084.6 242.705 C 1083.99 242.297 1083.28 241.957 1082.54 241.708 C 1081.77 241.482 1080.95 241.368 1080.11 241.368 C 1078.48 241.368 1077.24 241.821 1076.35 242.75 C 1075.47 243.679 1075.04 245.084 1075.04 246.942 L 1075.04 250.498 L 1075.31 255.279 L 1075.31 286.135 L 1064.19 286.135 Z M 1058.25 257.136 L 1058.25 248.573 L 1084.89 248.573 L 1084.89 257.136 L 1058.25 257.136 Z M 1115.98 286.724 C 1112.78 286.724 1109.93 286.09 1107.43 284.866 C 1104.94 283.62 1102.99 281.717 1101.61 279.18 C 1100.23 276.643 1099.55 273.38 1099.55 269.438 L 1099.55 247.712 L 1110.67 247.712 L 1110.67 267.784 C 1110.67 270.979 1111.35 273.312 1112.71 274.83 C 1114.07 276.325 1116 277.073 1118.47 277.073 C 1120.19 277.073 1121.71 276.71 1123.04 275.963 C 1124.38 275.238 1125.42 274.082 1126.19 272.542 C 1126.94 270.979 1127.33 269.053 1127.33 266.72 L 1127.33 247.712 L 1138.47 247.712 L 1138.47 286.135 L 1127.89 286.135 L 1127.89 275.578 L 1129.82 278.636 C 1128.55 281.309 1126.65 283.326 1124.15 284.685 C 1121.64 286.044 1118.92 286.724 1115.98 286.724 Z M 1173.84 286.724 C 1169.31 286.724 1165.79 285.569 1163.26 283.258 C 1160.74 280.947 1159.47 277.503 1159.47 272.927 L 1159.47 239.216 L 1170.62 239.216 L 1170.62 272.791 C 1170.62 274.4 1171.05 275.646 1171.91 276.529 C 1172.77 277.413 1173.93 277.866 1175.4 277.866 C 1177.17 277.866 1178.66 277.39 1179.91 276.439 L 1182.9 284.277 C 1181.77 285.093 1180.38 285.705 1178.8 286.112 C 1177.21 286.52 1175.54 286.724 1173.84 286.724 Z M 1153.54 256.298 L 1153.54 247.712 L 1180.2 247.712 L 1180.2 256.298 L 1153.54 256.298 Z M 1214.7 286.724 C 1211.51 286.724 1208.66 286.09 1206.17 284.866 C 1203.67 283.62 1201.73 281.717 1200.34 279.18 C 1198.96 276.643 1198.26 273.38 1198.26 269.438 L 1198.26 247.712 L 1209.4 247.712 L 1209.4 267.784 C 1209.4 270.979 1210.08 273.312 1211.44 274.83 C 1212.8 276.325 1214.73 277.073 1217.2 277.073 C 1218.92 277.073 1220.44 276.71 1221.77 275.963 C 1223.11 275.238 1224.15 274.082 1224.92 272.542 C 1225.67 270.979 1226.06 269.053 1226.06 266.72 L 1226.06 247.712 L 1237.2 247.712 L 1237.2 286.135 L 1226.62 286.135 L 1226.62 275.578 L 1228.55 278.636 C 1227.28 281.309 1225.37 283.326 1222.88 284.685 C 1220.37 286.044 1217.65 286.724 1214.7 286.724 Z M 1256.84 286.135 L 1256.84 247.712 L 1267.49 247.712 L 1267.49 258.564 L 1266 255.437 C 1267.13 252.719 1268.96 250.657 1271.5 249.252 C 1274.02 247.848 1277.1 247.145 1280.7 247.145 L 1280.7 257.431 C 1280.22 257.386 1279.79 257.34 1279.43 257.318 C 1279.05 257.295 1278.64 257.295 1278.21 257.295 C 1275.15 257.295 1272.7 258.156 1270.82 259.9 C 1268.94 261.622 1267.99 264.341 1267.99 268.011 L 1267.99 286.135 L 1256.84 286.135 Z M 1315.36 286.724 C 1310.97 286.724 1307.14 285.863 1303.83 284.141 C 1300.52 282.42 1297.96 280.086 1296.15 277.118 C 1294.34 274.128 1293.43 270.73 1293.43 266.923 C 1293.43 263.072 1294.32 259.651 1296.1 256.683 C 1297.89 253.693 1300.34 251.359 1303.42 249.683 C 1306.53 247.984 1310.02 247.145 1313.93 247.145 C 1317.69 247.145 1321.09 247.938 1324.11 249.547 C 1327.14 251.133 1329.52 253.421 1331.29 256.389 C 1333.06 259.379 1333.94 262.936 1333.94 267.082 C 1333.94 267.512 1333.92 267.988 1333.85 268.532 C 1333.8 269.076 1333.76 269.597 1333.71 270.073 L 1302.49 270.073 L 1302.49 263.57 L 1327.87 263.57 L 1323.56 265.496 C 1323.56 263.502 1323.18 261.758 1322.36 260.285 C 1321.55 258.813 1320.44 257.657 1319.01 256.819 C 1317.58 255.981 1315.9 255.573 1314 255.573 C 1312.1 255.573 1310.42 255.981 1308.97 256.819 C 1307.52 257.657 1306.39 258.813 1305.57 260.331 C 1304.76 261.826 1304.35 263.593 1304.35 265.655 L 1304.35 267.354 C 1304.35 269.461 1304.83 271.296 1305.76 272.904 C 1306.68 274.49 1308 275.714 1309.67 276.529 C 1311.37 277.367 1313.37 277.798 1315.63 277.798 C 1317.69 277.798 1319.49 277.481 1321.05 276.869 C 1322.59 276.235 1323.99 275.306 1325.28 274.082 L 1331.22 280.494 C 1329.45 282.51 1327.23 284.028 1324.58 285.116 C 1321.91 286.18 1318.83 286.724 1315.36 286.724 Z" style="fill-rule: nonzero; stroke-width: 2.266;"/>
  <path class="fil1" d="M 129.766 228.945 C 164.575 195.583 199.343 162.173 234.127 128.771 C 234.152 128.747 234.183 128.723 234.208 128.691 C 253.126 109.747 278.339 99.339 305.11 99.339 C 331.889 99.339 357.086 109.812 376.013 128.747 C 394.972 147.706 405.437 172.87 405.437 199.69 C 405.437 226.47 394.964 251.665 376.029 270.6 C 357.086 289.544 331.905 300 305.11 300 C 278.652 300 253.36 289.793 234.65 271.067 C 234.617 271.043 234.593 271.011 234.561 270.987 L 212.282 249.616 C 210.956 248.347 210.281 246.763 210.281 244.93 C 210.281 243.098 210.956 241.514 212.275 240.245 L 245.339 208.49 C 247.846 206.079 251.817 206.079 254.332 208.49 L 275.671 228.945 C 275.702 228.961 275.727 228.977 275.743 229.001 C 291.423 244.706 318.765 244.698 334.461 229.001 C 342.298 221.165 346.629 210.749 346.629 199.666 C 346.629 188.526 342.273 178.166 334.405 170.291 C 326.586 162.446 316.169 158.123 305.102 158.123 C 293.73 158.123 283.394 162.655 275.341 170.668 C 275.317 170.692 275.285 170.717 275.261 170.74 C 240.484 204.175 205.692 237.593 170.876 270.987 C 170.843 271.011 170.819 271.043 170.787 271.067 C 152.077 289.793 126.784 300 100.327 300 C 94.886 300 89.444 299.574 84.067 298.698 C 63.259 295.33 44.316 285.51 29.408 270.6 C 10.472 251.665 0 226.47 0 199.69 C 0 172.87 10.465 147.706 29.423 128.747 C 44.332 113.838 63.292 104.017 84.1 100.642 C 89.468 99.773 94.894 99.339 100.327 99.339 C 114.52 99.339 128.528 102.281 141.476 108.1 C 143.855 109.177 145.309 111.419 145.309 114.023 L 145.309 170.041 C 145.309 172.694 143.799 174.976 141.356 176.013 C 138.921 177.05 136.22 176.559 134.315 174.719 L 130.176 170.74 C 130.151 170.717 130.12 170.692 130.095 170.668 C 122.043 162.655 111.706 158.123 100.334 158.123 C 89.267 158.123 78.851 162.446 71.031 170.291 C 63.163 178.166 58.807 188.526 58.807 199.666 C 58.807 210.749 63.139 221.165 70.975 229.001 C 86.672 244.698 114.013 244.706 129.694 229.001 C 129.71 228.977 129.734 228.961 129.766 228.945 Z M 149.698 34.818 C 149.698 32.512 150.807 30.519 152.768 29.297 C 164.237 22.184 176.421 16.252 189.096 11.615 C 191.145 10.86 193.259 11.141 195.051 12.386 C 196.836 13.641 197.824 15.529 197.824 17.707 L 197.824 151.838 C 197.824 153.67 197.148 155.253 195.831 156.523 L 160.114 190.874 C 157.598 193.293 153.628 193.293 151.112 190.874 L 149.851 189.66 C 149.754 189.563 149.698 189.443 149.698 189.298 C 149.698 137.805 149.698 86.311 149.698 34.818 Z M 202.212 12.274 C 202.212 9.285 204.173 6.753 207.066 5.989 C 218.961 2.887 231.121 0.894 243.378 0.017 C 245.242 -0.111 246.906 0.476 248.264 1.745 C 249.63 3.015 250.338 4.631 250.338 6.496 L 250.338 104.314 C 250.338 106.581 249.269 108.542 247.364 109.771 C 240.974 113.894 235.051 118.692 229.674 124.069 C 229.643 124.102 229.61 124.134 229.578 124.166 L 203.08 149.603 C 202.879 149.796 202.565 149.788 202.373 149.595 L 202.364 149.587 C 202.26 149.491 202.212 149.37 202.212 149.225 L 202.212 12.274 Z" style="stroke-width: 1;"/>
</svg>