<?xml version="1.0" encoding="utf-8"?>
<svg xmlns="http://www.w3.org/2000/svg" viewBox="0 0 512 512" style="shape-rendering: geometricprecision;">
  <path class="fil0" d="M 35.3 473.761 L 35.3 424.191 L 64.78 424.191 C 69.64 424.191 73.62 424.821 76.74 426.091 C 79.85 427.361 82.31 429.121 84.11 431.391 C 85.9 433.661 87.16 436.301 87.88 439.301 C 88.6 442.301 88.96 445.541 88.96 449.011 C 88.96 454.841 88.08 459.561 86.31 463.191 C 84.54 466.811 81.87 469.481 78.31 471.201 C 74.74 472.911 70.23 473.761 64.78 473.761 L 35.3 473.761 Z M 52.74 462.151 L 62.98 462.151 C 65.2 462.151 66.92 461.711 68.15 460.821 C 69.38 459.931 70.25 458.521 70.76 456.581 C 71.27 454.651 71.52 452.121 71.52 449.011 C 71.52 446.071 71.33 443.731 70.94 441.971 C 70.55 440.211 69.98 438.891 69.23 438.001 C 68.48 437.111 67.58 436.521 66.54 436.231 C 65.49 435.941 64.3 435.801 62.98 435.801 L 52.74 435.801 L 52.74 462.151 L 52.74 462.151 Z M 124.01 474.161 C 119.28 474.161 115.13 473.821 111.56 473.131 C 108 472.441 105.02 471.211 102.62 469.431 C 100.22 467.651 98.43 465.101 97.23 461.791 C 96.03 458.471 95.43 454.191 95.43 448.941 C 95.43 443.691 96.03 439.411 97.23 436.101 C 98.43 432.781 100.22 430.241 102.62 428.461 C 105.02 426.681 108 425.441 111.56 424.751 C 115.13 424.061 119.28 423.721 124.01 423.721 C 128.75 423.721 132.9 424.061 136.46 424.751 C 140.03 425.441 143.01 426.681 145.4 428.461 C 147.8 430.241 149.6 432.781 150.8 436.101 C 152 439.411 152.59 443.691 152.59 448.941 C 152.59 454.191 152 458.471 150.8 461.791 C 149.6 465.101 147.8 467.651 145.4 469.431 C 143.01 471.211 140.03 472.441 136.46 473.131 C 132.9 473.821 128.75 474.161 124.01 474.161 L 124.01 474.161 Z M 124.01 462.551 C 126.29 462.551 128.15 462.351 129.59 461.951 C 131.02 461.551 132.15 460.861 132.96 459.881 C 133.76 458.911 134.33 457.531 134.66 455.751 C 134.99 453.971 135.16 451.701 135.16 448.941 C 135.16 446.051 134.99 443.721 134.66 441.941 C 134.33 440.161 133.76 438.791 132.96 437.831 C 132.15 436.881 131.02 436.221 129.59 435.861 C 128.15 435.511 126.29 435.331 124.01 435.331 C 121.8 435.331 119.95 435.511 118.49 435.861 C 117.02 436.221 115.88 436.881 115.07 437.831 C 114.26 438.791 113.69 440.161 113.36 441.941 C 113.03 443.721 112.87 446.051 112.87 448.941 C 112.87 451.701 113.03 453.971 113.36 455.751 C 113.69 457.531 114.26 458.911 115.07 459.881 C 115.88 460.861 117.02 461.551 118.49 461.951 C 119.95 462.351 121.8 462.551 124.01 462.551 L 124.01 462.551 Z M 183.6 474.161 C 179.83 474.161 176.44 473.831 173.45 473.161 C 170.45 472.501 167.87 471.271 165.72 469.491 C 163.56 467.711 161.91 465.161 160.77 461.821 C 159.63 458.481 159.07 454.151 159.07 448.811 C 159.07 443.651 159.66 439.421 160.86 436.131 C 162.06 432.841 163.75 430.291 165.94 428.491 C 168.13 426.691 170.72 425.441 173.72 424.751 C 176.71 424.061 180.01 423.721 183.6 423.721 C 187.32 423.721 190.6 423.861 193.44 424.151 C 196.29 424.441 198.72 424.791 200.72 425.191 C 202.73 425.591 204.33 425.991 205.53 426.391 L 205.53 436.461 C 204.4 436.291 202.93 436.111 201.13 435.931 C 199.33 435.751 197.28 435.611 194.97 435.501 C 192.67 435.391 190.16 435.331 187.47 435.331 C 185.43 435.331 183.71 435.491 182.3 435.801 C 180.89 436.111 179.77 436.731 178.93 437.671 C 178.09 438.601 177.48 439.971 177.09 441.771 C 176.7 443.571 176.5 445.961 176.5 448.941 C 176.5 451.611 176.65 453.841 176.95 455.621 C 177.25 457.391 177.79 458.781 178.57 459.791 C 179.35 460.791 180.47 461.501 181.94 461.921 C 183.41 462.341 185.31 462.551 187.65 462.551 C 192.2 462.551 195.9 462.501 198.75 462.391 C 201.59 462.281 203.86 462.131 205.53 461.951 L 205.53 472.031 C 204.03 472.471 202.28 472.851 200.28 473.161 C 198.27 473.481 195.92 473.721 193.22 473.901 C 190.52 474.081 187.32 474.161 183.6 474.161 L 183.6 474.161 Z M 239.69 474.161 C 234.95 474.161 230.8 473.821 227.24 473.131 C 223.67 472.441 220.69 471.211 218.3 469.431 C 215.9 467.651 214.1 465.101 212.9 461.791 C 211.7 458.471 211.1 454.191 211.1 448.941 C 211.1 443.691 211.7 439.411 212.9 436.101 C 214.1 432.781 215.9 430.241 218.3 428.461 C 220.69 426.681 223.67 425.441 227.24 424.751 C 230.8 424.061 234.95 423.721 239.69 423.721 C 244.42 423.721 248.57 424.061 252.14 424.751 C 255.7 425.441 258.68 426.681 261.08 428.461 C 263.48 430.241 265.27 432.781 266.47 436.101 C 267.67 439.411 268.27 443.691 268.27 448.941 C 268.27 454.191 267.67 458.471 266.47 461.791 C 265.27 465.101 263.48 467.651 261.08 469.431 C 258.68 471.211 255.7 472.441 252.14 473.131 C 248.57 473.821 244.42 474.161 239.69 474.161 Z M 239.69 462.551 C 241.96 462.551 243.82 462.351 245.26 461.951 C 246.7 461.551 247.82 460.861 248.63 459.881 C 249.44 458.911 250.01 457.531 250.34 455.751 C 250.67 453.971 250.83 451.701 250.83 448.941 C 250.83 446.051 250.67 443.721 250.34 441.941 C 250.01 440.161 249.44 438.791 248.63 437.831 C 247.82 436.881 246.7 436.221 245.26 435.861 C 243.82 435.511 241.96 435.331 239.69 435.331 C 237.47 435.331 235.63 435.511 234.16 435.861 C 232.69 436.221 231.55 436.881 230.74 437.831 C 229.94 438.791 229.37 440.161 229.04 441.941 C 228.71 443.721 228.54 446.051 228.54 448.941 C 228.54 451.701 228.71 453.971 229.04 455.751 C 229.37 457.531 229.94 458.911 230.74 459.881 C 231.55 460.861 232.69 461.551 234.16 461.951 C 235.63 462.351 237.47 462.551 239.69 462.551 Z M 278.78 473.761 L 278.78 424.791 L 302.06 424.791 C 307.4 424.791 311.47 425.801 314.29 427.821 C 317.1 429.851 318.51 432.991 318.51 437.271 C 318.51 439.311 318.08 441.101 317.21 442.641 C 316.34 444.171 315.19 445.421 313.75 446.371 C 312.31 447.331 310.78 447.991 309.16 448.341 C 310.3 448.521 311.53 448.861 312.85 449.381 C 314.17 449.891 315.44 450.601 316.67 451.511 C 317.9 452.421 318.9 453.591 319.68 455.011 C 320.46 456.441 320.85 458.151 320.85 460.151 C 320.85 463.671 320.11 466.411 318.65 468.391 C 317.18 470.371 315.08 471.761 312.35 472.561 C 309.63 473.361 306.44 473.761 302.78 473.761 L 278.78 473.761 L 278.78 473.761 Z M 284 470.301 L 302.69 470.301 C 305.33 470.301 307.62 469.991 309.57 469.391 C 311.52 468.791 313.04 467.731 314.15 466.191 C 315.26 464.661 315.81 462.441 315.81 459.551 C 315.81 457.551 315.23 455.841 314.06 454.411 C 312.89 452.991 311.32 451.911 309.34 451.181 C 307.37 450.441 305.15 450.081 302.69 450.081 L 284 450.081 L 284 470.301 Z M 284 446.941 L 302.51 446.941 C 305.63 446.941 308.22 446.111 310.29 444.441 C 312.35 442.771 313.42 440.531 313.48 437.731 C 313.66 434.221 312.65 431.761 310.47 430.361 C 308.28 428.961 305.45 428.261 301.97 428.261 L 284 428.261 L 284 446.941 Z M 350.06 473.761 L 350.06 457.081 L 328.76 424.791 L 334.24 424.791 L 352.76 453.211 L 371.27 424.791 L 376.66 424.791 L 355.27 457.081 L 355.27 473.761 L 350.06 473.761 Z M 402.91 473.761 L 402.91 428.261 L 381.79 428.261 L 381.79 424.791 L 429.24 424.791 L 429.24 428.261 L 408.12 428.261 L 408.12 473.761 L 402.91 473.761 Z M 450.45 474.031 C 448.96 474.031 447.44 473.931 445.91 473.731 C 444.39 473.531 442.95 473.131 441.6 472.531 C 440.25 471.931 439.16 471.021 438.32 469.791 C 437.48 468.571 437.06 466.941 437.06 464.891 L 437.06 434.201 C 437.06 432.371 437.42 430.861 438.14 429.661 C 438.86 428.461 439.82 427.501 441.02 426.791 C 442.21 426.081 443.55 425.571 445.02 425.251 C 446.48 424.941 447.97 424.791 449.47 424.791 C 452.88 424.831 456.13 424.881 459.22 424.921 C 462.3 424.971 465.3 425.021 468.2 425.091 C 471.11 425.151 473.94 425.231 476.7 425.321 L 476.7 428.321 L 450.54 428.321 C 448.03 428.321 446.02 428.821 444.52 429.821 C 443.02 430.831 442.27 432.441 442.27 434.661 L 442.27 447.671 L 472.92 448.011 L 472.92 450.881 L 442.27 451.211 L 442.27 464.161 C 442.27 465.981 442.71 467.341 443.58 468.231 C 444.45 469.121 445.57 469.701 446.95 469.991 C 448.33 470.281 449.73 470.431 451.17 470.431 L 476.7 470.431 L 476.7 473.431 C 473.94 473.521 471.08 473.601 468.11 473.661 C 465.15 473.731 462.2 473.801 459.26 473.861 C 456.33 473.931 453.39 473.991 450.45 474.031 L 450.45 474.031 Z" style="fill-rule: nonzero; stroke-width: 1;"/>
  <path class="fil0" d="M 81.41 506.141 C 79.58 506.141 77.95 505.761 76.53 505.021 C 75.1 504.271 73.98 503.241 73.17 501.911 C 72.36 500.591 71.95 499.081 71.95 497.401 C 71.95 495.701 72.36 494.191 73.17 492.881 C 73.98 491.561 75.1 490.531 76.53 489.791 C 77.95 489.041 79.58 488.671 81.41 488.671 C 83.2 488.671 84.75 489.041 86.08 489.791 C 87.4 490.531 88.38 491.601 89.01 492.991 L 85.2 495.041 C 84.75 494.241 84.2 493.651 83.54 493.271 C 82.88 492.891 82.16 492.711 81.38 492.711 C 80.54 492.711 79.78 492.891 79.11 493.271 C 78.44 493.651 77.91 494.191 77.52 494.881 C 77.13 495.571 76.93 496.421 76.93 497.401 C 76.93 498.391 77.13 499.231 77.52 499.931 C 77.91 500.621 78.44 501.161 79.11 501.531 C 79.78 501.911 80.54 502.101 81.38 502.101 C 82.16 502.101 82.88 501.921 83.54 501.551 C 84.2 501.181 84.75 500.591 85.2 499.771 L 89.01 501.851 C 88.38 503.211 87.4 504.271 86.08 505.021 C 84.75 505.761 83.2 506.141 81.41 506.141 L 81.41 506.141 Z M 103.8 506.141 C 101.97 506.121 100.37 505.731 98.98 504.991 C 97.59 504.241 96.5 503.211 95.7 501.911 C 94.9 500.611 94.5 499.111 94.5 497.401 C 94.48 495.701 94.88 494.191 95.7 492.881 C 96.52 491.561 97.62 490.531 99.01 489.791 C 100.4 489.041 101.98 488.681 103.77 488.701 C 105.58 488.681 107.19 489.041 108.59 489.791 C 110 490.531 111.1 491.561 111.89 492.881 C 112.68 494.191 113.07 495.701 113.07 497.401 C 113.09 499.081 112.7 500.581 111.91 501.901 C 111.11 503.211 110 504.241 108.59 504.991 C 107.19 505.731 105.59 506.121 103.8 506.141 L 103.8 506.141 Z M 103.8 502.101 C 104.62 502.101 105.36 501.911 106.01 501.531 C 106.66 501.161 107.17 500.611 107.55 499.911 C 107.93 499.211 108.12 498.371 108.12 497.401 C 108.12 496.421 107.93 495.571 107.55 494.881 C 107.17 494.191 106.66 493.651 106.01 493.271 C 105.36 492.891 104.61 492.711 103.77 492.711 C 102.97 492.711 102.25 492.891 101.6 493.271 C 100.94 493.651 100.42 494.191 100.03 494.881 C 99.65 495.571 99.45 496.421 99.45 497.401 C 99.45 498.371 99.65 499.211 100.03 499.911 C 100.42 500.611 100.94 501.161 101.58 501.551 C 102.22 501.941 102.96 502.121 103.8 502.101 Z M 120.48 505.881 L 120.48 488.921 L 125.18 488.921 L 125.18 493.561 L 124.3 492.201 C 124.89 491.041 125.72 490.171 126.81 489.571 C 127.89 488.971 129.12 488.671 130.51 488.671 C 132.07 488.671 133.43 489.061 134.59 489.851 C 135.76 490.641 136.53 491.841 136.91 493.461 L 135.18 492.991 C 135.74 491.661 136.65 490.611 137.9 489.841 C 139.15 489.061 140.59 488.671 142.21 488.671 C 143.55 488.671 144.75 488.941 145.79 489.471 C 146.83 490.011 147.65 490.831 148.25 491.931 C 148.84 493.041 149.14 494.451 149.14 496.171 L 149.14 505.881 L 144.22 505.881 L 144.22 496.931 C 144.22 495.561 143.94 494.561 143.37 493.901 C 142.81 493.251 142.01 492.931 140.98 492.931 C 140.26 492.931 139.62 493.091 139.06 493.411 C 138.49 493.741 138.05 494.231 137.73 494.881 C 137.41 495.531 137.26 496.361 137.26 497.371 L 137.26 505.881 L 132.34 505.881 L 132.34 496.931 C 132.34 495.561 132.06 494.561 131.5 493.901 C 130.95 493.251 130.15 492.931 129.12 492.931 C 128.41 492.931 127.77 493.091 127.2 493.411 C 126.63 493.741 126.19 494.231 125.88 494.881 C 125.56 495.531 125.4 496.361 125.4 497.371 L 125.4 505.881 L 120.48 505.881 L 120.48 505.881 Z M 167.69 506.141 C 166.26 506.141 165.01 505.821 163.94 505.191 C 162.86 504.561 162.03 503.601 161.43 502.311 C 160.83 501.011 160.53 499.381 160.53 497.401 C 160.53 495.411 160.81 493.771 161.38 492.481 C 161.95 491.201 162.77 490.251 163.84 489.621 C 164.91 488.981 166.19 488.671 167.69 488.671 C 169.28 488.671 170.72 489.031 171.99 489.761 C 173.26 490.481 174.27 491.501 175.02 492.801 C 175.76 494.101 176.14 495.641 176.14 497.401 C 176.14 499.191 175.76 500.731 175.02 502.041 C 174.27 503.341 173.26 504.351 171.99 505.061 C 170.72 505.781 169.28 506.141 167.69 506.141 L 167.69 506.141 Z M 157.66 512.001 L 157.66 488.921 L 162.36 488.921 L 162.36 492.391 L 162.26 497.431 L 162.58 502.451 L 162.58 512.001 L 157.66 512.001 L 157.66 512.001 Z M 166.84 502.101 C 167.66 502.101 168.39 501.911 169.03 501.531 C 169.67 501.161 170.18 500.611 170.57 499.911 C 170.96 499.211 171.16 498.371 171.16 497.401 C 171.16 496.421 170.96 495.571 170.57 494.881 C 170.18 494.191 169.67 493.651 169.03 493.271 C 168.39 492.891 167.66 492.711 166.84 492.711 C 166.02 492.711 165.28 492.891 164.63 493.271 C 163.98 493.651 163.46 494.191 163.08 494.881 C 162.71 495.571 162.52 496.421 162.52 497.401 C 162.52 498.371 162.71 499.211 163.08 499.911 C 163.46 500.611 163.98 501.161 164.63 501.531 C 165.28 501.911 166.02 502.101 166.84 502.101 Z M 183.58 505.881 L 183.52 488.921 L 188.4 488.951 L 188.44 505.881 L 183.58 505.881 L 183.58 505.881 Z M 185.98 486.561 C 185.07 486.561 184.34 486.291 183.77 485.771 C 183.2 485.241 182.92 484.591 182.92 483.811 C 182.92 483.041 183.2 482.381 183.77 481.861 C 184.34 481.331 185.07 481.071 185.98 481.071 C 186.88 481.071 187.62 481.321 188.18 481.811 C 188.75 482.311 189.04 482.941 189.04 483.721 C 189.04 484.541 188.76 485.221 188.2 485.751 C 187.64 486.291 186.9 486.561 185.98 486.561 Z M 197.14 505.881 L 197.11 482.491 L 202 482.491 L 202.03 505.881 L 197.14 505.881 Z M 219.12 506.141 C 217.19 506.141 215.49 505.761 214.03 505.001 C 212.57 504.241 211.44 503.211 210.64 501.901 C 209.84 500.581 209.44 499.081 209.44 497.401 C 209.44 495.701 209.84 494.191 210.62 492.881 C 211.41 491.561 212.49 490.531 213.86 489.791 C 215.22 489.041 216.77 488.671 218.49 488.671 C 220.15 488.671 221.65 489.021 222.98 489.731 C 224.32 490.431 225.38 491.441 226.15 492.751 C 226.93 494.071 227.32 495.641 227.32 497.471 C 227.32 497.661 227.31 497.871 227.29 498.111 C 227.27 498.351 227.25 498.581 227.22 498.791 L 213.45 498.791 L 213.45 495.921 L 224.64 495.921 L 222.75 496.771 C 222.75 495.891 222.57 495.121 222.21 494.471 C 221.85 493.821 221.36 493.311 220.73 492.941 C 220.1 492.571 219.36 492.391 218.52 492.391 C 217.68 492.391 216.94 492.571 216.3 492.941 C 215.66 493.311 215.16 493.821 214.8 494.491 C 214.45 495.151 214.27 495.931 214.27 496.841 L 214.27 497.591 C 214.27 498.521 214.47 499.331 214.88 500.041 C 215.29 500.741 215.87 501.281 216.61 501.641 C 217.36 502.011 218.24 502.201 219.25 502.201 C 220.15 502.201 220.94 502.061 221.63 501.791 C 222.31 501.511 222.94 501.101 223.5 500.561 L 226.12 503.391 C 225.34 504.281 224.37 504.951 223.19 505.431 C 222.01 505.901 220.66 506.141 219.12 506.141 L 219.12 506.141 Z M 250.56 506.141 C 248.56 506.141 247.01 505.631 245.89 504.611 C 244.78 503.591 244.22 502.071 244.22 500.051 L 244.22 485.171 L 249.14 485.171 L 249.14 499.991 C 249.14 500.701 249.33 501.251 249.71 501.641 C 250.09 502.031 250.6 502.231 251.25 502.231 C 252.03 502.231 252.69 502.021 253.24 501.601 L 254.56 505.061 C 254.06 505.421 253.45 505.691 252.75 505.871 C 252.05 506.051 251.32 506.141 250.56 506.141 L 250.56 506.141 Z M 241.61 492.711 L 241.61 488.921 L 253.37 488.921 L 253.37 492.711 L 241.61 492.711 Z M 261.44 505.881 L 261.44 482.491 L 266.36 482.491 L 266.36 493.621 L 265.26 492.201 C 265.87 491.071 266.74 490.191 267.87 489.581 C 269.01 488.971 270.3 488.671 271.75 488.671 C 273.1 488.671 274.3 488.941 275.36 489.471 C 276.42 490.011 277.26 490.831 277.87 491.931 C 278.48 493.041 278.78 494.451 278.78 496.171 L 278.78 505.881 L 273.86 505.881 L 273.86 496.931 C 273.86 495.561 273.56 494.561 272.96 493.901 C 272.37 493.251 271.52 492.931 270.43 492.931 C 269.65 492.931 268.95 493.091 268.33 493.411 C 267.71 493.741 267.23 494.241 266.88 494.911 C 266.53 495.581 266.36 496.451 266.36 497.501 L 266.36 505.881 L 261.44 505.881 L 261.44 505.881 Z M 295.87 506.141 C 293.94 506.141 292.24 505.761 290.78 505.001 C 289.32 504.241 288.19 503.211 287.39 501.901 C 286.59 500.581 286.19 499.081 286.19 497.401 C 286.19 495.701 286.59 494.191 287.38 492.881 C 288.17 491.561 289.24 490.531 290.61 489.791 C 291.98 489.041 293.52 488.671 295.24 488.671 C 296.9 488.671 298.4 489.021 299.74 489.731 C 301.07 490.431 302.13 491.441 302.91 492.751 C 303.68 494.071 304.07 495.641 304.07 497.471 C 304.07 497.661 304.06 497.871 304.04 498.111 C 304.02 498.351 304 498.581 303.98 498.791 L 290.2 498.791 L 290.2 495.921 L 301.39 495.921 L 299.5 496.771 C 299.5 495.891 299.32 495.121 298.96 494.471 C 298.61 493.821 298.11 493.311 297.48 492.941 C 296.85 492.571 296.12 492.391 295.28 492.391 C 294.43 492.391 293.69 492.571 293.05 492.941 C 292.41 493.311 291.91 493.821 291.55 494.491 C 291.2 495.151 291.02 495.931 291.02 496.841 L 291.02 497.591 C 291.02 498.521 291.22 499.331 291.63 500.041 C 292.04 500.741 292.62 501.281 293.37 501.641 C 294.11 502.011 294.99 502.201 296 502.201 C 296.9 502.201 297.7 502.061 298.38 501.791 C 299.06 501.511 299.69 501.101 300.26 500.561 L 302.87 503.391 C 302.1 504.281 301.12 504.951 299.94 505.431 C 298.76 505.901 297.41 506.141 295.87 506.141 L 295.87 506.141 Z M 320.98 505.881 L 320.98 488.541 C 320.98 486.631 321.54 485.101 322.68 483.961 C 323.81 482.811 325.43 482.241 327.53 482.241 C 328.25 482.241 328.94 482.311 329.6 482.461 C 330.26 482.611 330.82 482.841 331.28 483.151 L 329.99 486.711 C 329.72 486.531 329.41 486.381 329.08 486.271 C 328.74 486.171 328.38 486.121 328.01 486.121 C 327.29 486.121 326.74 486.321 326.35 486.731 C 325.96 487.141 325.77 487.761 325.77 488.581 L 325.77 490.151 L 325.89 492.261 L 325.89 505.881 L 320.98 505.881 L 320.98 505.881 Z M 318.36 493.081 L 318.36 489.301 L 330.12 489.301 L 330.12 493.081 L 318.36 493.081 Z M 343.84 506.141 C 342.43 506.141 341.17 505.861 340.07 505.321 C 338.97 504.771 338.11 503.931 337.5 502.811 C 336.89 501.691 336.59 500.251 336.59 498.511 L 336.59 488.921 L 341.5 488.921 L 341.5 497.781 C 341.5 499.191 341.8 500.221 342.4 500.891 C 343 501.551 343.85 501.881 344.94 501.881 C 345.7 501.881 346.37 501.721 346.96 501.391 C 347.55 501.071 348.01 500.561 348.35 499.881 C 348.68 499.191 348.85 498.341 348.85 497.311 L 348.85 488.921 L 353.77 488.921 L 353.77 505.881 L 349.1 505.881 L 349.1 501.221 L 349.95 502.571 C 349.39 503.751 348.55 504.641 347.45 505.241 C 346.34 505.841 345.14 506.141 343.84 506.141 L 343.84 506.141 Z M 369.38 506.141 C 367.38 506.141 365.83 505.631 364.71 504.611 C 363.6 503.591 363.04 502.071 363.04 500.051 L 363.04 485.171 L 367.96 485.171 L 367.96 499.991 C 367.96 500.701 368.15 501.251 368.53 501.641 C 368.91 502.031 369.42 502.231 370.07 502.231 C 370.85 502.231 371.51 502.021 372.06 501.601 L 373.38 505.061 C 372.88 505.421 372.27 505.691 371.57 505.871 C 370.87 506.051 370.13 506.141 369.38 506.141 L 369.38 506.141 Z M 360.42 492.711 L 360.42 488.921 L 372.19 488.921 L 372.19 492.711 L 360.42 492.711 Z M 387.42 506.141 C 386.01 506.141 384.75 505.861 383.65 505.321 C 382.55 504.771 381.69 503.931 381.08 502.811 C 380.47 501.691 380.16 500.251 380.16 498.511 L 380.16 488.921 L 385.08 488.921 L 385.08 497.781 C 385.08 499.191 385.38 500.221 385.98 500.891 C 386.58 501.551 387.43 501.881 388.52 501.881 C 389.28 501.881 389.95 501.721 390.54 501.391 C 391.13 501.071 391.59 500.561 391.93 499.881 C 392.26 499.191 392.43 498.341 392.43 497.311 L 392.43 488.921 L 397.35 488.921 L 397.35 505.881 L 392.68 505.881 L 392.68 501.221 L 393.53 502.571 C 392.97 503.751 392.13 504.641 391.03 505.241 C 389.92 505.841 388.72 506.141 387.42 506.141 L 387.42 506.141 Z M 406.02 505.881 L 406.02 488.921 L 410.72 488.921 L 410.72 493.711 L 410.06 492.331 C 410.56 491.131 411.37 490.221 412.49 489.601 C 413.6 488.981 414.96 488.671 416.55 488.671 L 416.55 493.211 C 416.34 493.191 416.15 493.171 415.99 493.161 C 415.82 493.151 415.64 493.151 415.45 493.151 C 414.1 493.151 413.02 493.531 412.19 494.301 C 411.36 495.061 410.94 496.261 410.94 497.881 L 410.94 505.881 L 406.02 505.881 L 406.02 505.881 Z M 431.85 506.141 C 429.91 506.141 428.22 505.761 426.76 505.001 C 425.3 504.241 424.17 503.211 423.37 501.901 C 422.57 500.581 422.17 499.081 422.17 497.401 C 422.17 495.701 422.56 494.191 423.35 492.881 C 424.14 491.561 425.22 490.531 426.58 489.791 C 427.95 489.041 429.49 488.671 431.22 488.671 C 432.88 488.671 434.38 489.021 435.71 489.731 C 437.05 490.431 438.1 491.441 438.88 492.751 C 439.66 494.071 440.05 495.641 440.05 497.471 C 440.05 497.661 440.04 497.871 440.01 498.111 C 439.99 498.351 439.97 498.581 439.95 498.791 L 426.17 498.791 L 426.17 495.921 L 437.37 495.921 L 435.47 496.771 C 435.47 495.891 435.3 495.121 434.94 494.471 C 434.58 493.821 434.09 493.311 433.46 492.941 C 432.83 492.571 432.09 492.391 431.25 492.391 C 430.41 492.391 429.67 492.571 429.03 492.941 C 428.39 493.311 427.89 493.821 427.53 494.491 C 427.17 495.151 426.99 495.931 426.99 496.841 L 426.99 497.591 C 426.99 498.521 427.2 499.331 427.61 500.041 C 428.02 500.741 428.6 501.281 429.34 501.641 C 430.09 502.011 430.97 502.201 431.97 502.201 C 432.88 502.201 433.67 502.061 434.36 501.791 C 435.04 501.511 435.66 501.101 436.23 500.561 L 438.85 503.391 C 438.07 504.281 437.09 504.951 435.92 505.431 C 434.74 505.901 433.38 506.141 431.85 506.141 L 431.85 506.141 Z" style="fill-rule: nonzero; stroke-width: 1;"/>
  <path class="fil1" d="M 163.873 289.12 C 207.831 246.989 251.737 204.798 295.664 162.617 C 295.695 162.586 295.735 162.556 295.766 162.515 C 319.657 138.593 351.496 125.449 385.304 125.449 C 419.122 125.449 450.941 138.674 474.843 162.586 C 498.785 186.529 512 218.307 512 252.176 C 512 285.994 498.775 317.812 474.863 341.724 C 450.941 365.647 419.142 378.851 385.304 378.851 C 351.892 378.851 319.952 365.961 296.324 342.313 C 296.283 342.283 296.253 342.242 296.212 342.212 L 268.078 315.224 C 266.403 313.621 265.551 311.621 265.551 309.307 C 265.551 306.993 266.403 304.993 268.068 303.39 L 309.823 263.289 C 312.989 260.244 318.003 260.244 321.18 263.289 L 348.127 289.12 C 348.167 289.14 348.198 289.16 348.218 289.191 C 368.02 309.023 402.548 309.013 422.37 289.191 C 432.266 279.295 437.736 266.141 437.736 252.145 C 437.736 238.078 432.235 224.995 422.299 215.049 C 412.424 205.143 399.27 199.683 385.294 199.683 C 370.933 199.683 357.88 205.407 347.711 215.526 C 347.68 215.556 347.64 215.587 347.609 215.617 C 303.692 257.839 259.755 300.041 215.788 342.212 C 215.747 342.242 215.717 342.283 215.676 342.313 C 192.048 365.961 160.108 378.851 126.696 378.851 C 119.825 378.851 112.953 378.313 106.163 377.207 C 79.886 372.954 55.964 360.552 37.137 341.724 C 13.225 317.812 0 285.994 0 252.176 C 0 218.307 13.215 186.529 37.157 162.586 C 55.984 143.759 79.927 131.356 106.204 127.094 C 112.984 125.997 119.835 125.449 126.696 125.449 C 144.62 125.449 162.31 129.164 178.661 136.512 C 181.665 137.872 183.502 140.704 183.502 143.992 L 183.502 214.734 C 183.502 218.084 181.594 220.966 178.509 222.275 C 175.434 223.585 172.023 222.965 169.618 220.641 L 164.391 215.617 C 164.36 215.587 164.32 215.556 164.289 215.526 C 154.12 205.407 141.067 199.683 126.706 199.683 C 112.73 199.683 99.576 205.143 89.701 215.049 C 79.765 224.995 74.264 238.078 74.264 252.145 C 74.264 266.141 79.734 279.295 89.63 289.191 C 109.452 309.013 143.98 309.023 163.782 289.191 C 163.802 289.16 163.833 289.14 163.873 289.12 Z M 189.044 43.97 C 189.044 41.057 190.445 38.54 192.921 36.997 C 207.404 28.015 222.791 20.524 238.797 14.668 C 241.385 13.714 244.054 14.069 246.317 15.642 C 248.571 17.226 249.819 19.611 249.819 22.361 L 249.819 191.746 C 249.819 194.06 248.966 196.059 247.302 197.663 L 202.198 241.042 C 199.021 244.097 194.007 244.097 190.83 241.042 L 189.237 239.509 C 189.115 239.387 189.044 239.235 189.044 239.052 C 189.044 174.025 189.044 108.997 189.044 43.97 Z M 255.361 15.5 C 255.361 11.725 257.837 8.528 261.491 7.563 C 276.512 3.646 291.868 1.129 307.346 0.022 C 309.701 -0.14 311.802 0.601 313.517 2.204 C 315.242 3.808 316.136 5.848 316.136 8.203 L 316.136 131.732 C 316.136 134.594 314.786 137.071 312.38 138.623 C 304.311 143.83 296.831 149.889 290.041 156.679 C 290.001 156.72 289.96 156.761 289.919 156.801 L 256.457 188.924 C 256.203 189.168 255.807 189.158 255.564 188.914 L 255.553 188.904 C 255.421 188.782 255.361 188.63 255.361 188.447 L 255.361 15.5 Z" style="stroke-width: 1;"/>
</svg>